<mxfile host="drawio-plugin" modified="2024-02-13T20:48:07.981Z" agent="5.0 (Macintosh; Intel Mac OS X 10_15_7) AppleWebKit/537.36 (KHTML, like Gecko) Chrome/119.0.0.0 Safari/537.36" etag="T-hY0AT78HBaKAow5F91" version="20.5.3" type="embed"><diagram id="q4vD3_Ipq2QML7572Tc2" name="Page-1"><mxGraphModel dx="1037" dy="1131" grid="1" gridSize="10" guides="1" tooltips="1" connect="1" arrows="1" fold="1" page="1" pageScale="1" pageWidth="850" pageHeight="1100" math="0" shadow="0"><root><mxCell id="0"/><mxCell id="1" parent="0"/><mxCell id="9" value="" style="edgeStyle=orthogonalEdgeStyle;rounded=0;orthogonalLoop=1;jettySize=auto;html=1;" edge="1" parent="1" source="2" target="8"><mxGeometry relative="1" as="geometry"/></mxCell><mxCell id="2" value="Inicio" style="ellipse;whiteSpace=wrap;html=1;" parent="1" vertex="1"><mxGeometry x="388" y="10" width="75" height="40" as="geometry"/></mxCell><mxCell id="7" value="" style="edgeStyle=orthogonalEdgeStyle;rounded=0;orthogonalLoop=1;jettySize=auto;html=1;" edge="1" parent="1" source="5" target="6"><mxGeometry relative="1" as="geometry"/></mxCell><mxCell id="5" value="int i = 0" style="rounded=0;whiteSpace=wrap;html=1;" vertex="1" parent="1"><mxGeometry x="378" y="160" width="95" height="40" as="geometry"/></mxCell><mxCell id="12" value="" style="edgeStyle=orthogonalEdgeStyle;rounded=0;orthogonalLoop=1;jettySize=auto;html=1;" edge="1" parent="1" source="6" target="11"><mxGeometry relative="1" as="geometry"/></mxCell><mxCell id="6" value="i&lt;br&gt;&amp;nbsp;&amp;lt;&lt;br&gt;sizeof(mainVector)/&lt;br&gt;sizeof(mainVector[0])" style="rhombus;whiteSpace=wrap;html=1;rounded=0;" vertex="1" parent="1"><mxGeometry x="325" y="260" width="201" height="150" as="geometry"/></mxCell><mxCell id="10" style="edgeStyle=orthogonalEdgeStyle;rounded=0;orthogonalLoop=1;jettySize=auto;html=1;entryX=0.5;entryY=0;entryDx=0;entryDy=0;" edge="1" parent="1" source="8" target="5"><mxGeometry relative="1" as="geometry"/></mxCell><mxCell id="8" value="mainVector[10]" style="rounded=0;whiteSpace=wrap;html=1;" vertex="1" parent="1"><mxGeometry x="365" y="80" width="120" height="40" as="geometry"/></mxCell><mxCell id="14" value="" style="edgeStyle=orthogonalEdgeStyle;rounded=0;orthogonalLoop=1;jettySize=auto;html=1;" edge="1" parent="1" source="11" target="13"><mxGeometry relative="1" as="geometry"/></mxCell><mxCell id="11" value="mainVector[i] = rand()" style="whiteSpace=wrap;html=1;rounded=0;" vertex="1" parent="1"><mxGeometry x="365" y="440" width="120" height="40" as="geometry"/></mxCell><mxCell id="13" value="i ++" style="whiteSpace=wrap;html=1;rounded=0;" vertex="1" parent="1"><mxGeometry x="365" y="510" width="120" height="40" as="geometry"/></mxCell><mxCell id="16" value="" style="endArrow=classic;html=1;rounded=0;exitX=0.5;exitY=1;exitDx=0;exitDy=0;" edge="1" parent="1" source="13"><mxGeometry width="50" height="50" relative="1" as="geometry"><mxPoint x="520" y="510" as="sourcePoint"/><mxPoint x="425" y="220" as="targetPoint"/><Array as="points"><mxPoint x="425" y="580"/><mxPoint x="240" y="580"/><mxPoint x="240" y="220"/></Array></mxGeometry></mxCell><mxCell id="17" value="Si" style="text;html=1;align=center;verticalAlign=middle;resizable=0;points=[];autosize=1;strokeColor=none;fillColor=none;" vertex="1" parent="1"><mxGeometry x="425" y="220" width="30" height="30" as="geometry"/></mxCell><mxCell id="18" value="" style="endArrow=classic;html=1;rounded=0;exitX=1;exitY=0.5;exitDx=0;exitDy=0;entryX=0.5;entryY=0;entryDx=0;entryDy=0;" edge="1" parent="1" source="6" target="20"><mxGeometry width="50" height="50" relative="1" as="geometry"><mxPoint x="520" y="510" as="sourcePoint"/><mxPoint x="426" y="640" as="targetPoint"/><Array as="points"><mxPoint x="600" y="335"/><mxPoint x="600" y="600"/><mxPoint x="426" y="600"/></Array></mxGeometry></mxCell><mxCell id="19" value="No" style="text;html=1;align=center;verticalAlign=middle;resizable=0;points=[];autosize=1;strokeColor=none;fillColor=none;" vertex="1" parent="1"><mxGeometry x="540" y="305" width="40" height="30" as="geometry"/></mxCell><mxCell id="20" value="Fin" style="ellipse;whiteSpace=wrap;html=1;" vertex="1" parent="1"><mxGeometry x="388" y="640" width="75" height="40" as="geometry"/></mxCell></root></mxGraphModel></diagram></mxfile>